
<svg xmlns="http://www.w3.org/2000/svg" viewBox="0 0 1099.39 704.45" width="1099px" height="704px"><defs><style>.a,.b,.c,.d{fill:#e8e8e8;stroke:#bcbcbc;}.a,.b,.c,.d,.e,.f,.g,.h,.i,.j,.k{stroke-miterlimit:10;}.a{stroke-width:1.02px;}.c{stroke-width:1.02px;}.d{stroke-width:1.05px;}.e{fill:#8163b6;}.e,.f,.g,.h,.i,.j,.k{stroke:#000;}.f{fill:#e3a9a9;}.g{fill:#f7dd6f;}.h{fill:#eec9c9;}.i{fill:#4c99f0;}.j{fill:#bfdbf9;}.k{fill:#99c5f6;}</style></defs><title>Desktop</title><path class="a" d="M162.11,399,76.85,269.66l19.36-79.52L18.38,170.07a66.13,66.13,0,0,0-1.8,7c0,1,0,6.69-1.29,9.78s-4.63,10.81-5.15,11.58S6,202.77,6,202.77l-2.57,2.31s-3.61,6.7-2.83,8.76,5.14,7.72,5.92,11.84,1.28,8.75.51,10.55A54.89,54.89,0,0,0,4,247.3c-.51,3.86,2,9,5.48,15.45s2.25,11.84,2.5,14.67,6.7,6.95,6.44,9.53-1.8,8.75-1.8,12.1,1.8,9.78,5.92,12.87c0,0,3.73.38,3.6,3s-1.41,6.05-4.63,7.33c0,0-3.61,3-.65,8.76s3.74,3.34,5.28,9a119.52,119.52,0,0,0,7.34,18.66c3,6.18,3,6.56,3.86,7.34a2.13,2.13,0,0,1,.9,2.44c-.26,1-4.12,12.62-3.6,13.52s1.22,3,3.7,3.6,4.15.52,5.56,1.16,7.73,4.12,9,4.12,3.87-.52,5.67,2.32,4.5,9.78,8,11.32,8.36,1.42,9.14,3,1.93,5,1.28,5.41c0,0-3.09,1.29-.38,2.57s5.79.52,6.3,1,7.08,9.27,9.4,12.62,2.83,5.66,2.83,6.3.13,13,0,14.93.9,1.55.9,1.55,21.11,2.83,23.43,3.35,17.5,2.31,19.43,2.31,14.42.26,14.94,0c0,0,3.86-4.42,2.48-5.1s-4.63-.52-4.63-1.38.17-7.72.69-8.92,4.8-3.78,5.32-5,.34-7.89,1.88-9.78,7.9-3.95,8.76-6.52-.69-4.12-1-4.81-.35-5.83-1.72-7.55-3.26-2.74-3.43-4.8A37.57,37.57,0,0,1,162.11,399Z"/><path class="a" d="M76.85,269.66l19.36-80.17L18.38,170.07a66.13,66.13,0,0,0-1.8,7"/><path class="b" d="M264.74,256.14l3.43-28.57-57.32-10.13s-17.08,88.43-25.24,130.81l103.32,17.21L302.41,261Z"/><path class="c" d="M264.74,256.14l4-28.57-57.92-10.13s-17.08,88.43-25.24,130.81"/><path class="c" d="M210.85,217.44l-57-13.89s12-47.55,13.73-51,.52-3.6-.34-3.95-4.12,0-4.12,0a17.33,17.33,0,0,1,1.71-8.92c2.24-4.29,5.32-5.49,6.35-6.52s1.55-.86,1.72-1.72a21.14,21.14,0,0,1,3.78-6.69c1.88-2.06,7-6.87,7.2-8.24s.69-4.12-.17-4.81-5-6.52-5-7.2a31.82,31.82,0,0,1,.17-14.93L194,26.43l16.48,3.26S205.7,53.2,205.7,54.23s2.06,5.49,2.75,6.87a9.06,9.06,0,0,1,.68,5.83,7.38,7.38,0,0,0,1.72,6.87c1.89,1.88,3.77,2.91,4.29,3.94s4.12,10.64,5.32,12.88,3.6,3.6,6,4.63,2.74,2.57,1.88,4.29-8.58,19.56-8.58,20.77.35,5.49,3.26,5.83,6.18-1.89,7.9-2.92,1.37-1.2,1.37,1,.34,8.07.86,9.61,1.71,9.44,3.6,10.82,4.64,3.08,5.32,5.14a18,18,0,0,1,.86,6.87c-.17,2.4.34,2.92,1,2.74s2.4-1.37,4.46-1.37,4.29.86,5.84.86,4.8-.69,7-.17,4.64,1.71,5.84,1.71,3.26.69,3.26-1.37.69-3.43,2.57-3.43,1.72,2.92,2.58,3.6l2.57,2.06-9.35,66.25-57.92-10.13"/><polygon class="c" points="280.01 148.45 278.12 161.32 264.74 256.14 302.41 260.95 401.94 271.5 406.41 217.45 410.78 164.58 280.01 148.45"/><line class="d" x1="406.33" y1="218.48" x2="410.78" y2="164.58"/><path class="c" d="M554.09,211.31s-.52-45.61-.52-47.67-6.05-4.25-6.24-7.59c-.18-3,3.15-3.87,3.15-3.87v-5.27l-137.4-5.41-6.75,77s106.31,5.4,108.37,5.91,4,4.44,8.24,5.67c3,.86,9.67-1.11,14.28-.2,4.89,1,7.23,2.18,8.11,2.77a14.59,14.59,0,0,1,4.51,5.41h3.73s-2.51-5.36-2.27-7c.55-4,2.83-6.91,2.78-9.57S550,216.05,550,214.8c0-2.14-.24-2.75,2.07-3.11C553.29,211.5,552.65,211.59,554.09,211.31Z"/><path class="a" d="M183.73,111.72c-.86-.68-5-7.8-5-8.49,0,0-13.22-3.52-14.25-3.86s-13.38-4.12-16.82-4.46-18.87,0-18.87,0-2.75,0-3.95-1.38-2.58,0-4,1-6.52.69-7.89,0-2.41-1-5.15-.68-4.46-1-6.18-2.06-7.21-1.72-8.58-2.41a9.6,9.6,0,0,0-6.18,0c-1.72.69-6.18-.34-8.58-1s-5.15-2.4-5.84-4.11,0-8.24,0-12-5.64-1.56-6.17-3.54c-1.07-4-1.63-3.34-4.4-3.34-2.64.45-5.1,1.09-6.5,2.33-1.55,1.38-5.24,13.65-6.09,16S42.23,100.57,40.6,105,31.85,125.2,28.5,131.2,18.38,147,18.38,147s-1.8,12.44-2.75,17.25l2.75,5.83,136.14,33.64S165.88,156,167.6,152.57s.52-3.6-.34-3.95-4.12,0-4.12,0a17.33,17.33,0,0,1,1.71-8.92c2.24-4.29,5.33-5.49,6.35-6.52s1.55-.86,1.72-1.72a21.14,21.14,0,0,1,3.78-6.69c1.88-2.06,7-6.87,7.2-8.24S184.59,112.41,183.73,111.72Z"/><path class="a" d="M69.89,69.84c-1.44-.19-3-.11-3.45-.94h0c-.22-1-1.4-5.71-5.34-5.15-2.1.3-3.46.86-4.49.86s-1.11-1.63-1.8-3.35-.26-2.83.52-3.35,1.37,0,3.09-1.28.94-3.87.94-3.87L57,51.23V46.68h5.32S60.6,45,59.05,43.33s-1.54-9-1.54-10.72,0-5,.08-6.09a26.27,26.27,0,0,0,.35-5.41c-.26-1.63-2.06-3.09-2.06-4.55s.68-3.09.77-4.37a17.42,17.42,0,0,1,2.06-5.84c.69-.77,1.54-.08,2.4.6s1.8,1.8,3.26,2.92,3,4,5.32,5.23,4,1.63,6.44,2.66,6.43,2.06,9.61,3.09,4.63,1.12,5,.86.34-1.8.42-2.74.78-1.64,2.06-2.32,1.55-.43,1.72-.09,0,3.09-.43,3.18-1.71.34-1.8,1.63.43,1.63,1.37,2.49,1.38,3.26,2.83,4.8,1.55.86,1.55.86a14.64,14.64,0,0,0-.26-3.26l-1.29-3.35c-.17-2.06.69-1.89.18-3.69s-.26-1.89,0-3.77,1.2-2.06,1.54-3.26-.77-4-1.29-5-2-2.32-2.4-4.38A1.85,1.85,0,0,1,96.55.52l98,25.91L178.33,92.78l.43,10.45-31.07-8.32"/><path class="a" d="M69.89,69.84a2.78,2.78,0,0,1,2.63,2.41c0,3.78-.68,10.3,0,12S76,87.7,78.36,88.38s6.86,1.72,8.58,1a9.6,9.6,0,0,1,6.18,0c1.37.69,6.86,1.38,8.58,2.41s3.43,2.4,6.18,2.06,3.77,0,5.15.68,6.52,1,7.89,0,2.75-2.4,4-1,3.95,1.38,3.95,1.38,15.44-.35,18.87,0"/><polygon class="a" points="301.76 260.86 401.94 271.5 441.85 275.45 435.93 380.65 414.39 379.11 288.94 365.46 301.76 260.86"/><polygon class="a" points="288.94 365.46 267.83 515.28 286.88 517.86 288.94 506.53 324.72 510.91 326 505.85 403.75 511.17 414.56 394.55 414.56 393.26 414.39 379.11 288.94 365.46"/><path class="a" d="M406.33,218.48l-4.38,53,39.9,3.95-1.49,24.87,134.32,4.13s-4.89-6.69-5.66-8.75-1-3.86-2.06-6.95-2.34-10.82-2.58-12.1c-.71-3.87,0-6.18-3.34-13.9s-6.78-22.91-7.47-24.71h-3.73a14.55,14.55,0,0,0-2.91-4.09c-1.6-1.32-4.77-4-12.58-4.33,0,0-8.84.84-10.13.64a13.12,13.12,0,0,1-7.12-4.16s-1-1.66-3.94-1.86S406.33,218.48,406.33,218.48Z"/><path class="a" d="M440.56,299.82l-4.63,80.83,153.68,3.86s2.49-43.68-.09-56.8c0,0-8.62-5.16-8.37-9.79s1.85-4.37,2.62-5.14.09-3.78-.6-3.87a17,17,0,0,1-5.92-2,6.62,6.62,0,0,1-2.57-2.49Z"/><path class="c" d="M414.39,379.11l.17,14.15,63.84,3.18-3.26,52.69s7,7.55,9.78,5.49l1.2-1.89s.69,3.11,1.72,2.24,2.75-2.76,3.26-1.9-1.72,4.29.69,5.15,11.15,2.06,12.7,2.75,1.71,2.4,3.09,2.06,3.05-2.06,5.73-1,2.68,2.57,3.71,3.26.85,3.6,1.88,3.6h2.58a15,15,0,0,1,4.63-1.37c1.72,0,2.92-.17,3.43.51s3.26,4.64,5.84,4.81a5,5,0,0,0,3.77-1s1.21-5.66,2.23-5a16.53,16.53,0,0,1,3.27,2.75c.85,1,3.26,1,4.63,1.37s3.6,1.92,6.18,1.91,2.57-.54,3.43-1.91a5.16,5.16,0,0,1,6.18-1.71c2.57,1.2,3.43.17,3.43.17l2.57-1a1.9,1.9,0,0,0,1.38,1.2,33.72,33.72,0,0,0,5-.34s.69-2.06,2.58-1.55,3.26,2.75,4.12,3.95,2.92.37,5,1.22a34,34,0,0,1,5.32,3.24V427.59s-1.54-10-1.71-12.1,0-10-.52-11.5-1.49-7-1.49-7l-1.08-12.44-153.68-3.86Z"/><path class="a" d="M554.92,211.29s-4.21,0-4.85,1.43c-.88,1.95,1,4.14,1,4.14s3,2.58,3,4.57a10.56,10.56,0,0,1-.93,3.69c-.27.67-2.39,5-1.72,7.21s2.36,6.41,2.49,6.87,4,14.92,4,14.92,3.47,10.62,4.81,13.2a19.74,19.74,0,0,1,.9,3.74c.32,2.16,1.65,10.57,1.52,9.82s1.56,7.21,1.78,7.87,81.54-2.19,81.54-2.19,2.83,6.63,4.76,5.54,1.8-1.87,1.74-3,.51-3.54,2.18-3.8,1.93-.64,1.93-.64-.64-3,0-4,2.13-1.61,2.58-2.57a9.52,9.52,0,0,0,.51-4.45c-.25-1-1.35-1.48-2-2.31a5.32,5.32,0,0,1,1.48-7,11.63,11.63,0,0,1,4-1.41c3.16-.71,4.25-.65,5.54-2.45a54.1,54.1,0,0,0,4.12-7.85c.67-1.93,1.48-4.63,0-6.24,0,0-2.19-2.13-3.09-3s-1.61-1-2-2.51a4.11,4.11,0,0,0-1.93-2.7c-.89-.73-2.57-.64-2.77-1.54s1.23-2.71-.51-3.74-3-.38-5.28-1.35c-1.53-.64-5.14-4.06-5-7.14.22-3.6,0-2.76,1-5.47.93-2.48,1.16-2.51.51-3.35s-3-2.7-3.22-3.47a17.67,17.67,0,0,1-.43-2.49Z"/><path class="a" d="M590.69,397.34l1.72,8.19.2,7s1.27,13.3,1.8,15.08v48.48s2.11,2,3.47,1.42c0,0,2.73-1.78,4.25-1.17s2,2.5,2.14,3.51.58,10,.58,10h63.79a8.21,8.21,0,0,0,1.09-3.67c.17-2.81.5-4.51.13-5.15a32.54,32.54,0,0,1-1.54-2.89,2.18,2.18,0,0,1,1-2.19c.71-.39-.56-1.74-.69-2.32s.14-3.35.19-5.21c0-1-.25-5.09,1.61-5.73s1.74-1,2-2.32a27.07,27.07,0,0,0,.26-3.67s4-5.08,4.56-5.59,1.35-.33,2.13-.45.58-5.67.58-5.67a8.77,8.77,0,0,1,3.6-5.6l2.06-1.28v-4.12s2.49-2.41,3-3.76a13.11,13.11,0,0,0-.13-4.67,22.68,22.68,0,0,1-.44-3.32s3.27-2.22,3.59-2.48,3-11.27,3.22-11.9l-12.15-.29s0-1.36,1.66-3.23a45.55,45.55,0,0,0,3.33-4.44c.21-.64.91-2.86-1.21-3.53Z"/><path class="c" d="M604.85,489.8c0,1.37,1.75,28.06,1.75,28.06a59.81,59.81,0,0,1,2.92,5.23c.34,1,.51,4.12.86,5s3.26,3.6,4.46,6.69,2.4,6.35,1.54,11.16-3.43,8.24-3.6,8.92,1.89,3.43,1.71,4.81-1.2,5.49-1.71,7.89-1.72,4.29-2.23,6.7c0,0,.25,3.73,1.07,4.5,0,0,6.69-1.93,12-1.67a53.6,53.6,0,0,1,14.29,3.21,21.52,21.52,0,0,0,8.49,1.68c3-.13,5.92-1.55,6.82-1.29s2.71,1.16,3.35,1.42,2.57,1.28,3.09.77.77-2.32,0-2.83-3.73-.52-5.15-.9-4.63-1.29-2.06-3.48c0,0,2.83-1.8,4.76.52a7.34,7.34,0,0,1,3.48-.52c1.67.26,4.38,1.93,4.38,4.89v1.68s6.3-.78,7.33,1.15,0,3.22-1,3.61c0,0-1.54.51,3.22,2.57s6.69,3.48,8.24,3.61a4.54,4.54,0,0,0,4-1.93c.9-1.29,1.41-2.06,1.8-2.06s3.73-2.71,5.66-1.81a2,2,0,0,1,.65,3.48c-.9.64,1.41,1.29,1.93.9s3.73-4.25,3.73-4.25a2.52,2.52,0,0,1-.77-1.28c-.26-.91.64-3,2.44-4.38s2.45-.77,2.45-.77l1.67,4.37s3.22-.25,4.89.65,3.35,1.41,4.12,2.19a6.29,6.29,0,0,0,4,2.05,5.52,5.52,0,0,1,2.58.52s2.57-3.6,2.06-4.51-2.71-1.41-2.71-1.41-3.73-2.58-6.17-2.83-4.77-.65-5.93-1.81-1.41-4,0-4.5l1.94-.26s-1.55-1.54-.78-1.8,2.19,0,3.22-.77,2.57-2.45,2.06-3.48a23,23,0,0,1-1.54-3.21c0-.39-.26-2.19-.26-2.19s-2.7.38-3.35,1.28-.38,3.87-1.8,4-4.25-.38-4.38-1,0-2.18,2.58-4.24c0,0,2.28-2,2.46-2.31,0,0-2.33-5.29-2.85-6.45s-2.83-3.6-3.86-4.89.26-5.4.77-7.59-.77-2.32-.77-2.32-40.8,2.06-41.19,1.55.52-12.36.52-12.36,8.62-15.32,9.39-16.09.39-2.06.52-3.35a8.26,8.26,0,0,1,1.67-3.34c.52-.77-.77-1.29-1.42-1.93a7.46,7.46,0,0,1-1.41-2.83,65.78,65.78,0,0,1-2.06-7.34,18.75,18.75,0,0,1,0-5H604.85"/><path class="a" d="M668.64,489.8a18.75,18.75,0,0,0,0,5,65.78,65.78,0,0,0,2.06,7.34,7.46,7.46,0,0,0,1.41,2.83c.65.64,1.94,1.16,1.42,1.93a8.26,8.26,0,0,0-1.67,3.34c-.13,1.29.25,2.58-.52,3.35S662,529.7,662,529.7c-.78,1.38-.52,12.36-.52,12.36.39.51,41.19-1.55,41.19-1.55s1.29.13.77,2.32-1.8,6.31-.77,7.59a35.91,35.91,0,0,1,6.6,11.45h0s3.31-3,4.21-5.91a24,24,0,0,0,3.22.38c1.16,0,6.18-2.57,8.75-1.93a17.78,17.78,0,0,0,5.67.9c2.44,0,4.37.13,4.37.13s-1.16-16.39-1.67-19.39-2.45-19.4-2.62-20.17a107.75,107.75,0,0,1-.64-11.41c.17-1.89.26-10.55.26-10.55l.42-62.5-44.81,1.76-.75.76v4.12l-2.06,1.28a8.77,8.77,0,0,0-3.6,5.6s.19,5.54-.58,5.67-1.61-.07-2.13.45-4.56,5.59-4.56,5.59a27.07,27.07,0,0,1-.26,3.67c-.26,1.36-.13,1.68-2,2.32s-1.58,4.77-1.61,5.73c-.05,1.86-.32,4.63-.19,5.21s1.4,1.93.69,2.32a2.18,2.18,0,0,0-1,2.19,32.54,32.54,0,0,0,1.54,2.89c.37.64,0,2.34-.13,5.15a8.21,8.21,0,0,1-1.09,3.67"/><path class="c" d="M700.92,391.57l29.24.09-.32-5.67,97-8.52s8.42-6,9.93-7l.9-2.87,14.29-16.09a106.48,106.48,0,0,1-7.6-8c-2.7-3.35-3.34-5.28-3.34-5.66s-3-1.42-3.22-2.06a55.15,55.15,0,0,1-.52-8c.13-.77-3.34-3.22-4.5-4.51s-1.29-3.09-1.67-3.86-3.22.64-4,1.42-2.32,3.47-3.87,3.09a27.16,27.16,0,0,0-4.37-1.16c-1.55-.13-3.22.77-4.25.9s-4.38-1.55-5-1.93-5.92-.26-5.92-.26a43.45,43.45,0,0,0-1.67-4.63,5.72,5.72,0,0,0-3.35-2.06c-1.67-.26-9.14,0-9.14,0l-.38,3.47s2.31,3.22,1.41,4-4.76,4.51-8.24,4.51-3,.64-3,.64l-.51,5.28s-4.12,3.73-5.54,5.15-3.34,3.73-3.34,4.24.77,4.12-.65,4.38a32.48,32.48,0,0,1-4.76.13s-.9-1.67-1.67-1.67-5.79,2.83-5.79,2.83.77,3.6-.13,4.12-2.45-.9-2.45-.9-1.54-1.81-2.57-1.81a7.1,7.1,0,0,0-4.25,3.09,11.6,11.6,0,0,1-1.29,2.32,23.86,23.86,0,0,0-2.57-2.57c-.39-.13-6.44-2.71-16.48,3.21,0,0-1.41,4.51-2.7,5.54l2.19,4.5s-6.7.52-7.34,2.45-.77,3.35-.26,4.5,1,3.61.39,4.12-2.32,0-3.22-.51-5.27-2.45-6.69-1.93-3.9,1.88-5.3,6.21c0,0,2.7.8,2.89,2.38a7.65,7.65,0,0,1-.79,2.84,14.7,14.7,0,0,1-2.08,3.3Z"/><path class="c" d="M665.61,236.56s.32-2.67.8-2.61l55.26-3.89s.3,5.32.34,6.52c0,.16,0,.33,0,.51l0,.69s.4,2.6,3.77,6.45l.26.56a5.51,5.51,0,0,1,.35.6c.11.23.35.86.63,1.6.42,1,.84,2,1.08,2.74a3.56,3.56,0,0,0,1.19,1.81s4.36,60,4,63.22a29,29,0,0,0-.1,6.85,15.68,15.68,0,0,0,.89,2.23c.12.23.25.5.39.8a8.87,8.87,0,0,1,1.13,2.53,12.2,12.2,0,0,1,0,4.63c-.38,1-4.31,9.34-5.79,11.2-.44.56-.82,1-1.14,1.34-.41.71-.72,1.22-.85,1.39a3.61,3.61,0,0,0-.33,1.4c0,2-.19,8.16-.19,8.16s-1.41,4.51-2.7,5.54l2.19,4.5s-6.7.52-7.34,2.45-.77,3.35-.26,4.5,1,3.61.39,4.12-2.32,0-3.22-.51-5.27-2.45-6.69-1.93c0,0-3.65.6-5.3,6.21-.39,1.32-2.42-.57-3.11-1.06a11.46,11.46,0,0,1-2.53-4.11,11,11,0,0,1,0-5.42c.26-1.16-.65-1.84-1.65-3.62-.53-.95-2.25-5.48-3.15-6.25s-2.46-.81-3.7-1.2c-3-.94-3.56-1.71-6.13-3.77s-4.85-4.08-5.62-7.56,1.5-7.47,2.36-9.39,2-4.72,1.33-5.88-2.49-1.33-4.68-1.72-4.74-.46-6.13-.85c-1.17-.34-1.21-5.8-1.08-6.7s-6.43-3.17-12.65-11a18,18,0,0,1-2.92-3.95c-1.12-1.84-1.2-2.4-1.67-5.66-.16-1.05-1-9.53-1-9.79s1.22-.12,1.22-.12c1.93-1.1,1.8-1.87,1.74-3s.51-3.54,2.18-3.8,1.93-.64,1.93-.64-.64-3,0-4,2.13-1.61,2.58-2.57a9.52,9.52,0,0,0,.51-4.45c-.25-1-1.35-1.48-2-2.31a5.32,5.32,0,0,1,1.48-7,11.63,11.63,0,0,1,4-1.41c3.16-.71,4.25-.65,5.54-2.45a55.87,55.87,0,0,0,3.72-6.89s1.54-3.75,1.23-5.08a4.36,4.36,0,0,0-1.71-3l-2.67-2.58a8.72,8.72,0,0,1-1.23-1.29c-.15-.32-.44-1.42-.66-1.86a3.5,3.5,0,0,0-1.89-1.79C666.61,237.18,665.78,237.26,665.61,236.56Z"/><path class="c" d="M879.06,216.09a3.18,3.18,0,0,1,.78-.88,10.5,10.5,0,0,0,3.37-3.17c.77-1.42,4.5-3.48,4.76-3.87s.64-2.18,1.41-3.73,2.06-1.8,2.58-3.09-.39-3.73-.77-4.37-2.06-.91-2.06-.91-2.32-7.46-1.93-7.59,15.57-5.15,17.76-5.66,5.4,0,7.46.38,2.83,1.81,4.38,1.29,2.06-2.32,4.12-3.09,6.05-.13,7.21-.64,1.67-2.83,4.24-6,4.25-2.7,5.8-3.09.77-2.57.51-4-1.8-3-1.67-3.48a18.3,18.3,0,0,1,1.67-2.57s-.51-1.42-1.8-1.42-3.86-.51-4-2.44a8.05,8.05,0,0,1,3.35-6.69c2.57-1.94,6.56-7.47,6.56-7.47s1.29-5.15,9.52-12.87,16-5,17.51-5.28,13-4.25,13-4.25,1.11,6.18,2.14,8.24,3,9.61,2.75,12.19-.45,4.37.25,5.66,4.38,5,2.75,8.49c-1,2.16,3,2.69,3.69,3.78,2,3.18,2.67,10.06,2.81,12.68.17,3.19-.36,13.31.45,19.5a106.07,106.07,0,0,0,2.58,14.07c1,3.78.25,8.07,0,9.87s-.52,7.21-.52,7.21-.51,1.61-.06,2.12,2.28,2,2.28,2-2.23,3-2.13,3.41.34,1.35,2.83.91a4.94,4.94,0,0,0,2.14-1.91c.8-1.36,1.18-2.56,2.41-2.53a33,33,0,0,0,5,.13,36.52,36.52,0,0,0,7.61-3.49c2.14-1.44,7.53-5.34,7.53-5.34a20.08,20.08,0,0,1,3.52,1.62s-4.55,4.43-5.61,5.23-8.74,6.26-9.89,7-5.37,3.65-9.59,4.73a57.2,57.2,0,0,0-7.31,2.1c-.84.43-1.29.71-1.29.71s.54-5.18.7-6.45.55-3.71.24-4.67.55-1.13-2.11-1.95l-7.51-2.37-9.4-4.12s-.17-.24-1.2-.33-2.89-.38-3.47-1-1.7-5-1.76-5.18-1.54-3.92-1.54-3.92a3.5,3.5,0,0,0-2.46-.05s-1,.37-1.47,0-2.92-3.78-2.92-3.78l-85.12,18Z"/><path class="c" d="M786.27,426.35s.56-.05.55.32a43.49,43.49,0,0,0,0,6.67c.4,2.37,1.93,5.87,2.83,8.19a63.49,63.49,0,0,1,3,9.14c.39,2.32,3.35,13.64,4,16.09s3.6,12.36,4.51,15.7,1.54,4.89,2.31,6.05,1.68,1.42,1.8,3-.38,3.35,1.29,3.61,2.83.18,2.19,1.57a44.29,44.29,0,0,0-2.32,8.21c-.25,2.06-1.41,4-.38,6.31a24.85,24.85,0,0,1,1.8,6.69c.13,1.41-1,5-1,6.56s1.26.78,2.11,1.93a17.59,17.59,0,0,1,1.62,4.38l-57.92,5.53a3.82,3.82,0,0,0-1.42,4c.33,1.49,4.93,3.58,5.73,4.77.39.57.15,9.78.15,9.78a36.39,36.39,0,0,0-5.64,2.33,4.22,4.22,0,0,1-4-.14,31.41,31.41,0,0,0,2.87-2.73c.37-.48-.29-2.5-1.8-5s-1.8-3.85-3.65-3.45c-1.46.3-1.6.83-2.18,2.15-.47,1.09-2.62,6.42-2.62,6.42l-3,.45-1.32.06-1.9-18.87s-3.31-17.93-3.17-33.38c0-3.77.27-24.8.29-27.12,0-2.57.43-43.93.43-43.93Z"/><path class="a" d="M786.8,426.3s-.47,5.14,0,7,4.39,12.26,4.89,13.93,4.89,19.49,4.89,19.49l5.73,19.58a31,31,0,0,0,2.4,3.72,4.84,4.84,0,0,1,.51,2.76s-.07,2.06,1.27,2.26c0,0,2.7,0,2.37,1,0,0-1.76,5.41-2.5,8.81a19.38,19.38,0,0,0-.8,4.31c.12,1.11,2,5.69,2.07,7.61a13.64,13.64,0,0,1-.38,4.6c-.43,2.24-.69,3.3-.21,3.91a8.88,8.88,0,0,1,1.61.83,19.49,19.49,0,0,1,1.83,4.61l4.64,6.82,61.13-2.83s-.64,3.41,0,3.8,3.54.38,3.8.51.84-4.18.65-5.15-2.06-5-2.06-5.34a2.09,2.09,0,0,1,2.38-1.61c1.8.13,10.68,1.29,10.68,1.29s.31-9,.5-10.29,1.39-6.48,1.67-7.26,1.57-5,1.71-5.6a31.1,31.1,0,0,0,.47-4.2s0-2.88.91-4.05a52.62,52.62,0,0,0,2-6.52s-1.56,1.62-3.17.53-3-4-3.8-6.11-2.25-5-3.54-5a5.72,5.72,0,0,1-2.77-.71c-.38-.32-4.5-12.17-5.21-12.68s-4.7-2.32-5.85-3.22a13.42,13.42,0,0,1-3.16-4,4.31,4.31,0,0,0-2.19-2.26c-1-.7-2.38-2-3.47-2.63s-3.93-5.41-5.66-5.73a10.28,10.28,0,0,1-4.7-1.61,7.92,7.92,0,0,1-2.58-3.61c-.58-1.28-2.76-3.6-3-4s-3.28-5.25-3.73-5.87-2.7-.43-3.73-.5-.84.26-3.48-1.61-4-2.48-4-3.9,1.25-3,2.38-4.2c.83-.88,1.06-1.07,1.06-1.07-.09-.25-.42-2.22-.42-2.22l-25.42,3Z"/><path class="a" d="M838,419.84s18-8.46,20.4-8.94c2.58-.52,7.85-.65,9-.77s14.42-.65,15.45-.65,4.25.65,5.4,2.19,1.79,4.2,2.47,4.23c1,0,18.52-2,20.32-2s3.34.64,5.66,1.8,25.11,18.26,25.11,18.26-14,8-10.69,20.61l-1.81,1.29s-1,3.73-1.67,3.86-2.57.39-2.57.39-5.76,8.4-8.35,10.57-6.07,5.39-6.58,6.29l-3,.13.77,3.73s-5,5.57-8.31,8.38L899,490.3s-2,1.64-3.17.53c0,0-1.38-.55-3.27-4.8s-2.21-5-2.83-5.57a3.25,3.25,0,0,0-2.59-.94s-1.22.17-1.9-1.59l-4.54-11.37a11.51,11.51,0,0,0-1.55-1c-.74-.38-4.63-2.57-4.63-2.57a10.64,10.64,0,0,1-2.39-2.91l-1.47-2.32s-.39-.25-1.35-1-4-3.11-4-3.11l-2.35-2.87a8.58,8.58,0,0,0-2.29-2.19c-.91-.34-1.94-.08-3.81-1a7.67,7.67,0,0,1-3.61-3.65c-1.32-2.25-.15-.31-.15-.31s-4.08-6-4.87-7.19-1.85-3.28-2.52-3.4-3.86-.22-3.86-.22a18.11,18.11,0,0,1-3.54-2.08c-1.95-1.45-4-2-3.18-4.58a8.35,8.35,0,0,1,3.27-4.1Z"/><path class="a" d="M862.65,372.41l6.18.86S963.59,358.13,984,351.56c0,0,5.49,10.75,6.11,11.7s3.48,4.43,3.58,4.9a17.07,17.07,0,0,1,0,2.19s-1.37.78-1.33,1.68.14,5.08-.25,5.37-3,1.69-3.14,2.08-2,6.37-5.65,6.86a11.92,11.92,0,0,1-6.92-1.44l-.13,2.06s2.94.17,2.66,2.09l-1.5,6.79a16.88,16.88,0,0,0,4.16.15,3.29,3.29,0,0,0,1.89,1.39s3.41-2,3.22-1.41-5.53,8.88-5.53,8.88-7.39-1.7-16.61,6.06-.29.21-.29.21-9.1,5-10.78,20c0,0-1.94-1-5.51.1-.38.11-6.19,2.71-6.19,2.71L917,415.85s-2-2.44-7.68-1.88l-18.92,1.95s-.55-.43-1.69-3.35a4.91,4.91,0,0,0-4-2.83c-2.43-.45-21.33.18-26.5,1.22L838,419.84l-25.42,3,1-6.35s2.49-2.23,4.46-1.89l1.2-5S838.48,400.11,839,399a52.83,52.83,0,0,1,2.09-5.9c.48-.62,4.6-3.79,4.6-3.79s2.8,2,3.26,1.63,3.27-4.46,3.27-4.46h5.14s2.23-6.44,5.32-7.64Z"/><path class="a" d="M1023.76,103.53l3.35.13s.13-1.67.13-4.25a15.77,15.77,0,0,1,2.57-7.85,28.62,28.62,0,0,0,2.83-7.34c.26-1.16-1.16-2.7-1.67-3.73s-.65-4.76-.39-6.56,1.55-3.87,1.68-5.54a26,26,0,0,0-.13-4.76,12.24,12.24,0,0,1,.25-2.58l7.86-21.23,3.08.13s.65,2.7,1.42,3.34,2.06.77,4.25,0,6.43-6.43,7.85-6.56,10.55,4.76,10.55,4.76l11.46,35.65s6.31,0,7.46.65.91,7.93.91,7.93l2.57,1.85s1.42-.52,1.54-1.42,1-.13,2.06,0,1.93.9,3.35,2.71,2.45,3.21,2.06,5.53-.64,4.63-2.83,6a81.17,81.17,0,0,0-9.27,8.5c-.26.51-2.06,2.7-2.7,2.7s-1-1.29-1.29-1.67-1.54-.52-3.6,0-4.64,4.37-4.64,4.37a12.71,12.71,0,0,1,1.29,2.45c.26.9-.77,3-1.42,3.47s-1.8-.38-1.8-1.41-1.16-1.68-1.8-2.32-1.29-2.7-2.19-3.09-.9.64-1.93,1.42.52,1.8,1,3.47-.13,7-1.54,8.88-2.19,1.42-3.61,1.81-.9,3-1.41,3.47-4.77,3-6.44,3.09-2.57-1-3-1-4,4.63-4,4.63,1.29,3.35.39,4.38-.52,4-.52,5.66a57.25,57.25,0,0,1-1.93,10.3s-2.44-2.32-2.79-2.83-.68-3.09-1.2-3.78-4-.64-4-.64Z"/><path class="a" d="M1023.76,103.1l-3,1.55s-2.06-.54-3,.26c-1.38,1.19-1.06,1-1.29,3.73a19.35,19.35,0,0,0-.17,4.35s0,4.57,1,6.46,3,5.32,2,7-3.39,5.67-5.28,6.53-3.43,1-2.74,2.23,1.71,2.06,1.71,3.26-1.88,26.25-1.88,26.25a5.58,5.58,0,0,1,1.54,2.06c.77,2.24-.52,5.5-.17,6.87a2.39,2.39,0,0,0,1.54,1.71l22.83-5.32a6,6,0,0,1,3.26-4.46c3.1-1.76,5-.71,5.31-6.3l-2.57-2.62a22.19,22.19,0,0,0-1.38-3.94c-.47-.55-3.85-.48-3.85-.48Z"/><path class="a" d="M851.93,351.56s5.27,6,9.2,6.37a5.68,5.68,0,0,0,5.66-3.28c.2-.32,2.45,1.22,3.29,1.54s3.41,0,4.31-1.48,2.25-5.92,3.09-5.85,2.12,1,3.09.77,3.66-3,4.37-2.57a2.65,2.65,0,0,0,1.74.06s3.41-3,2.9-4.31a21.24,21.24,0,0,1-.9-3.22s-.07-1.22,1.28-3.93,3.8-7.78,4.25-9.07,2-5.86,2.06-7.34,1.09-5.79,1.93-5.14,2.45,3.15,3,3.34,3.86,1,4.44.07a27.8,27.8,0,0,0,1.74-6.38c.06-1.09.06-3,1.48-3.21s3-.45,3.15-.9.2-2.71.32-3,3.74-2.26,4.25-3.87,2.83-7.14,2.83-10.68c0,0-.38-2.12,1.23-1.09s10,5.66,10.55,4.82,1.16-5.47.52-6.37l5.21,2.38v3.61s10.42,1,11.58,6.82c.28,1.39-1.28,4.23-1.8,5.65s-1.29,3.23-.26,4.26,11.07,4.89,14.42,5.92,7.21,2.32,7.46,3.09-1,5.15,0,6.18,2.84,4.89,2.32,5.92-2.57,0-2.57,1,2.57,1.67,2.66,3.35,2.13,2.8,2.23,4.89c.08,1.8-3.09,4.37-2.06,4.63s7.37-2.41,8.24-1c1.23,2,4.85,9.63,4.85,9.63s-9.26,2.19-33.31,6.85c-21.46,4.15-81,14.24-81,14.24l-7-1.89s-2.06-1.54-5.49,2.41l-32.07,2.81,11.65-7.28.69-2.74Z"/><path class="a" d="M997.18,178.18s-.06,14,1.37,20.72l40.53-9.52,9.74,12.28s2.2-1.56,2.23-2.11-.35-5.45,3.86-5.15c0,0,1.19,2.95.22,4.15l-2.7,3.63s3-1,4.39-2.56c0,0,3.66-4.86,6.71-5.78a39.34,39.34,0,0,0,5.69-2.06,5.77,5.77,0,0,0,0-2.79s-.53-4.37-3-6.09a6.17,6.17,0,0,0-5.13-1.5s-.51,1.51.13,1.67c1,.27,1.79.36,3.12.71,1.6.43,1.79,3,1.33,3.92a4.52,4.52,0,0,1-3,2.54c-1.51.22-4.72.86-6.82-1.5a26.62,26.62,0,0,1-1.82-3.91c-.2-.71-1.71-4.21-5.13-4.05,0,0-1.1.17-2.26.37,0,0-3.24-.92-3-3.47,0,0,2-4.4,2.89-6.7.2-.49-.56-2.23-1.35-3.65,0,0-1.61-2.15-1.19-3.32a8.15,8.15,0,0,0-3.3,1.29c-1.78,1.15-3.24,2-3.82,4.56L1014,175.39Z"/><path class="a" d="M982.79,121.16s1,4.46,1.24,5.53,1.6,4.32,2,5.88,2,7.13,1.39,11.34a5.75,5.75,0,0,0,1.52,4.85,6.54,6.54,0,0,1,2,5.84c-.35,1.14-1.3,2.28.72,3.34s2.89,1.36,3.55,3.57a62.45,62.45,0,0,1,1.88,16.67l16.51-2.94s-1.55-.45-1.24-2.68a24.71,24.71,0,0,0,.35-5.14,16.39,16.39,0,0,0-1.69-2.67L1013,138.5a5.79,5.79,0,0,0-.61-1.65c-.39-.55-2.35-2.21-.44-3s2.38-.84,3.11-1.56,4.08-4.51,4.5-6.57a5.46,5.46,0,0,0-.46-2.6,26.82,26.82,0,0,1-2.27-4.95s-.62-4.93-.62-6.19Z"/><path class="c" d="M894.39,282.45s1.82,13,2.91,14.67c0,0,5.47-6,6.18-6.38s3.51-1,4.06-1.72,2.5-3.62,2.5-3.62,3.89.77,4.55.52,4.43-4.69,7-5.11,9.83,5,10.09,6.07l5.21,2.38v3.61s6,.81,8.47,2.75a11.13,11.13,0,0,1,3.11,4.07,9.5,9.5,0,0,0-2.91,4.25,6.83,6.83,0,0,0,.57,5.28c.7,1.25,4.37,2.23,4.37,2.23s.6-.95,3.31-.79,4.87,1.86,7.29,2.15c2.27.27,2.94.29,3.88-1.42,0,0,.09-1.43-1.64-3.91s-3.78-5.68-3.78-5.68a34.21,34.21,0,0,1-.88-5.65l-.49-7s-.33-1.84,1.77-6.33c0,0,2.22-3.64,4.73-5,0,0,1,.13.9,1,0,0-3.86,5-3.73,6.3l2.7,2.06s1.15,4.73.52,5.57l-2.15,2.07a5.85,5.85,0,0,0,0,2.26c.27,1.09.44,1.69.44,1.69l1.68-1.67,1.16,2.05-1.55,1.94s.87,3.46,1.09,4,1.32,3.8,3.94,3.65,4.5-.4,4.5-.4,4.32,4.7,4.67,4.89a10.93,10.93,0,0,1,1.35,1.19l8-3.91a15,15,0,0,1,1.16-3.91s.72-4.58.38-6.23l-13.21.56s-4.44-18.86-5.09-20.15-4.66-11.8-4.66-11.8Z"/><path class="d" d="M980.51,314.47l7.75-3.91a12.81,12.81,0,0,1-1,5.44s-1.33,1.84-3.3,4.19c-.52.63-.71,3.44-.72,5.24s.23,6,.08,6.83a6.86,6.86,0,0,1-4.08,5.53s-2.45-3.47-2.49-5.81c0,0-.15-3.59,2-9.64Z"/><path class="a" d="M966.84,269l4.83,12.24L976.59,301l13.21-.56s-1.53-6.9-1.93-7.94-.57-1.27-2.21-2-2.82-1.31-3.58-2.86l-3.76-7.56a4,4,0,0,0-2.69-2.18s-1.18-.08-1.8-2.13-1.32-3.9-.91-5.94a28.43,28.43,0,0,1,1.8-5Z"/><path class="a" d="M998.55,198.9s1.71,6,2,8.06a22,22,0,0,1,0,5.68c-.23,2.36-.83,8.83-.84,9.52s-.78,2.15-.07,2.81,2.28,2,2.28,2,4.52-3,5.13-3.43,4.19-4.05,5-4.67,3.45-2.12,10.74-4.56l10.49-3.62,1.47-.58-3.91-18.78Z"/><path class="a" d="M1030.84,191.32l3.91,18.78a15,15,0,0,0,3.85-2.35c1.49-1.39,3.57-3.16,4.56-3.47s4.6-1.21,5.66-2.62l-9.74-12.28Z"/><path class="c" d="M944.84,294.91s1.42-2.59,2.2-2.42,3.6,2.75,3.6,2.75l-2.47,3.55Z"/><path class="a" d="M53.3,556.22H66s7.55-2.75,8.93,0l-1.38,3.43s10.62,5.83,11,4.12L81.45,555v-2.56l-2.75-1.37a63.67,63.67,0,0,1-1.85-8.58c-.21-2.75-4.67-10.3-4.67-10.3s2.38-5.15,12.35-3.09a26.78,26.78,0,0,0,5.5-6.18c2.4-3.77,4.46-7.38,6.18-5.06s10.64-.73,10.64-.73h5.83s4.12-7.58,5.49-5.53,6.53,6.26,6.53,6.26v3.69h6.86l2.06,5.15,10.23,1.37,6.25,3.78,4.8.34,4.46,1.72h4.47l9.95,5.13V641s3.77,1.72,6.52,0a3.2,3.2,0,0,1,4.46.77l1.38,4.73s8.23,7.89,8.23,8.92,3.09-2.06,3.09-2.06,3.32-8.92,7.33-6.86,6.4,6.17,6.06,6.52-.13,1.74,1.71,2.61c6.48,3,6.53,7,9.62,11.12a126.21,126.21,0,0,1,7.2,11.67l12,4.12s3.43,8.83,0,13c0,0-.73,3-2.79,2.58s-2.45-3.35-2.45-3.35a6.15,6.15,0,0,0-2.7-2.7c-1.67-.65-3.35-1.68-3.6-.77s.38,2.06.9,3.09,1.28,4,.38,4.63-2.44,0-2.44,0-3.09-3.48-3.09-2.7,1.93,4.11,1.28,4.37-1.54.9-3.47-3.09l-1.93-4.37a1.81,1.81,0,0,1-1.55.25c-.9-.25-1.54-1.54,0-2.7l-.9-2.06-.51-6.56h-1.16s-.51,4.63-1.42,4.76-3.21-9.27-3.21-9.27.51,7.85,0,8-5.8-8.75-5.8-8.75-2.44.26-2.7-.39-.64-4.11-1.16-5-2.06-3.09-2.7-4.11-1.16-3.22.64-4.25-2.44-.9-3.21-1.29-4.12-3.09-6.44-4.76-10.55-5.79-10.55-6.57,2.57-5.92,1-5.4-2.19,3.73-5.28,2.83-10.17-3.6-11.2-3.86a38.79,38.79,0,0,0-4.89-.26c-2.32-.13-4.51-1.16-7.21-2.44s-3.35-1.16-4.63-1.94-3.09-6.56-4.25-6.82a11.52,11.52,0,0,0-5.28.39c-2.44.64-3.22,1-3.34,2.06s-.52,4.12,0,3.47,1.67-2.57,1.8-1.8-.77,3.48.13,3.35,2.06-1.93,3-.77,1.8,3.47-1,5-5,2.31-5,1.28a7.37,7.37,0,0,0-.65-2.44,3.69,3.69,0,0,1-2.44.38c-1.42-.25-2.05-1.41-3.28-.9s-5.6,5.28-7.66,5.79-7.73.91-8.24.13a3.6,3.6,0,0,1-.13-2.31l4.38-.65-1-2.06-.77-1.28,2.83-5.92.51-4.12,4.76-2.06,2.45.9,2.9.13s-1-3-2.13-3.09-4.25-.77-6.3.38-7.47,7.47-9.27,10.17-2.19,2.83-3.09,3.22-5.54,1.29-6.44,2.83-1,2.7,0,3.48,2.83,1.41,2.19,2.57-1.67,4.38-3.47,5.54-11.72,6.82-14.29,8a34.4,34.4,0,0,1-6.31,2.44,26.58,26.58,0,0,0-6,2.32c-2.7,1.29-4.12,1.41-4.12,1.8s1.42.26.39,1.67A14.23,14.23,0,0,1,66.78,675a15,15,0,0,0-4.64-.65c-1.54.26-2.32,0-4,.52s-2.74,1.67-4.85,1.93-2.49-.51-5.19-.39a19.07,19.07,0,0,0-4.63,1A27.6,27.6,0,0,0,38.72,679c-1.16.51-2.19,1.67-3.48,1.67s-2.7-1.41-4.5-1.54-3.74,1.26-4.9,1-2.31-3.4,0-4.17,8.24,1.16,10,.39a59.72,59.72,0,0,0,7.86-4.51c1.54-1.16,5.4-1.8,6.43-1.67s3,1.28,3.61,1.16a67.24,67.24,0,0,0,7.2-4c1.8-1.16,3.48-1.94,4.89-1.55s3.74.64,4.64-1.8a6.91,6.91,0,0,1,4.5-4.12c1.42-.39,3.74-6.18,4.64-7.21s2.57-3.47,2.7-4.76.77-2.83.13-2.57-2.32,1.54-4,1.54-2.19-3.73-3.48-3-1.67.51-1.93,2.32-.38,3.21-1.41,2.83-.13-6.7-1.55-7.08a2.07,2.07,0,0,0-2.19.64l-2.06-.64.13-1.16s-3.09-.64-5,.26-4.24,1-4.5.26.51-.26.64-2.19-.26-2.32.39-4,2.83-1.29,3.09-1.93a19.57,19.57,0,0,0-.13-6.05c-.39-.78-1.42-4.12-2.32-3.22s-.9,1.93-3,1.93H49.3a7.43,7.43,0,0,1-1.06-2.7,26.19,26.19,0,0,0-2.06-5.67c-.77-1.41-.51-2.83.39-3.21s1.41-1.81,1.54-3.61-2.44-2-2.44-4.62.64-5.8,2.83-7.22,5.15-2.57,6-3.6,2.57-5.67,4.63-6.18,3.48-.39,4.12,1,.51,3.34,1.54,3,4.12-2.58,5.8-3,2.18.9,4,.51,4.89.26,4.89-1.8-.65-6.44,1-8,1.93-2.45,1.16-3.35-.39-1-2.45-.64-1.67,1.29-6.05,1-4.5-2.06-7.72-2.06-5.79-.51-6.31-.9-2.57-1.29-2.06-5,2.19-5.41,1.55-6.18A40.51,40.51,0,0,0,55.32,560,10.69,10.69,0,0,1,53.3,556.22Z"/><path class="d" d="M29.45,568.23a9.56,9.56,0,0,0-1.89,2.57c-.34,1-1.37,2.75,0,2.92a7.85,7.85,0,0,1,3.78,1.89c.68.68,1.37,3.6,2.4,4.29s3.26,1.37,3.95.86.34-2.23,0-3.61-.52-4.12-2.24-4.29-3.26-.17-3.94-1A32.13,32.13,0,0,1,29.45,568.23Z"/><path class="d" d="M18.71,627.16c-.5.05-.34,2.2,0,3s.85,2.54,1.86,2.71c0,0,2,.32,1.74-.76s-1.14-1.58-1.46-2.09S19.69,627.05,18.71,627.16Z"/><path class="d" d="M33.25,613.3c.13-.15,8.68,1.67,8.94,2.45s.71,1.35,0,2.25-1.09,2.06-1.61,2.51-.88.71-2.5.64-1.68-.38-3-1.54S31.19,615.49,33.25,613.3Z"/><path class="a" d="M108.39,653.87s-7,4.8-8.92,6-5,1.89-5.84,3.44a8,8,0,0,0-.85,5.32c.34,1.88.51,4.8,2.74,4.8s8.07-2.75,9.61-4.12,4.12-2.23,3.26-3.09-1.54-4.46-1.54-4.46a16,16,0,0,1-3.26.17c-.86-.17-.35-1.71,2.4-2.06s4.46-1.2,4.46-2.06-2.23-1.2-2.23-1.71S108.39,653.87,108.39,653.87Z"/><path class="c" d="M286,606s-8.24.63-8.58,3.38,7.2,9.26,8.58,7.55S289.11,607.47,286,606Z"/><path class="c" d="M267.83,612.67s-4.12,3.49-2.75,4.58,4.46-2.29,4.46-2.29Z"/><path class="c" d="M321.37,620.06s-7.89,2.06-7.89,3.77,1.71,7.55,3.94,7.55h3.95s7.21,1.72,7.55,0S321.37,620.06,321.37,620.06Z"/><path class="c" d="M375.26,668.45s-3.56.13-2.15,3.74c0,0,1.81,1.8,1.55,2.57a13,13,0,0,1-3.73,4.38c-1.29.64-2.71,2.31-1.55,4.24s4.12,4.12,4,6-.26,4.77-.26,7.34a7.53,7.53,0,0,0,2.15,5.66c1.2,1,3,2.06,4.29,1.16s5.66-8.24,7.34-8.36a24,24,0,0,0,4.63-.65c3.35-.64,6.82-2.47,7.72-4.19l.9-1.73s-3.47-2.06-4.24-3.86-2.84-7.59-5.93-9.14S375.26,668.45,375.26,668.45Z"/><path class="c" d="M339.91,633.31s-1.55,0-1.42,1.16,3.95,2.83,5.45,3.09,5.75.9,7.16,0,2.45-2.44,1.68-2.83-1.42-.39-3.74-.39S341.58,635.25,339.91,633.31Z"/><path class="c" d="M355.48,638s-2.82,2-2.44,2.88,5,7.08,6.3,8,2.32,1.54,5.15.77,6.95-1.67,7.08-2.44.9-2.93,0-3.2-2.32-1.57-4.25-2.08-3.33,0-4.82-1S355.48,638,355.48,638Z"/><path class="c" d="M343.94,640.39a11.5,11.5,0,0,1,3.69,0c1,.39,3.22,2.58,3.09,3.09s-2.14,3.09-3.39,3.09S343.94,640.39,343.94,640.39Z"/><path class="e" d="M96.21,189.49l114.64,27.95s-17.08,88.43-25.24,130.81c-2.2,11.44-3.5,18.22-3.94,20.56"/><path class="f" d="M611.4,578.69a9.86,9.86,0,0,1-.54-5.69c.43-1.55,1.4-3.06,1.92-5.46s1.54-6.52,1.71-7.89-1.88-4.12-1.71-4.81,2.74-4.12,3.6-8.92-.34-8.07-1.54-11.16-4.12-5.83-4.46-6.69-.52-4-.86-5a59.81,59.81,0,0,0-2.92-5.23s-2.23-35.1-2.23-36.47-.17-3.6-1.72-4.81-4.29,1-5.32,1-2.92-1.54-2.92-1.54a34,34,0,0,0-5.32-3.24c-2.05-.85-4.11,0-5-1.22s-2.23-3.43-4.12-3.95-2.58,1.55-2.58,1.55a33.72,33.72,0,0,1-5,.34,1.9,1.9,0,0,1-1.38-1.2l-2.57,1s-.86,1-3.43-.17a5.16,5.16,0,0,0-6.18,1.71c-.86,1.37-.86,1.89-3.43,1.91s-4.81-1.57-6.18-1.91-3.78-.34-4.63-1.37a16.53,16.53,0,0,0-3.27-2.75c-1-.68-2.23,5-2.23,5a5,5,0,0,1-3.77,1c-2.58-.17-5.32-4.12-5.84-4.81s-1.71-.51-3.43-.51a15,15,0,0,0-4.63,1.37H518.9c-1,0-.86-2.92-1.88-3.6s-1-2.23-3.71-3.26-4.36.68-5.73,1-1.55-1.38-3.09-2.06-10.3-1.89-12.7-2.75-.17-4.29-.69-5.15-2.23,1-3.26,1.9-1.72-2.24-1.72-2.24l-1.2,1.89c-2.74,2.06-9.78-5.49-9.78-5.49l3.26-52.69-63.84-3.18L403.75,511.17,326,505.85l-1.28,5.06a7.74,7.74,0,0,1,3.28.77l-.36-.08a6.55,6.55,0,0,1,1,.53l.15.15.11,0a5.85,5.85,0,0,1,2,2.72s1.54,5.15,1.8,5.66,4.5,1,5.53,2.19,0,1.67,2.45,4.63,7.59,10.69,9.52,11.46,4.25,1,5.15,1.67,1.93,2.45,3,3.61,1,3.6,1.93,5.4,3.35,5.79,3.35,6.31-.77,6.95.77,10.42,7.08,10.43,9.14,12.62,4.25,2.44,6.18,3.34,2.31,2.32,4.89,4.25,9.65,5.28,10.55,5.28,5.28-5.54,6.31-7,3-6.69,3.73-8,4.51-5.54,12.75-7.34c0,0,1.93,2.58,3,2.7s12.48,1.94,14.93,2.32,4.5.13,5.27,2.06,1.42,4,4.25,6.05,6.18,5,6.82,6.44,2.19,2.44,2.45,4.63.39,4.63,1.67,6.56,3.35,7.73,3.86,8.5.9,4.38.9,5.28.52.25,3.09,2.83,4.12,6.56,5.67,8.88,4.12,5.41,5.53,5.79,4.76,1.29,4.51,3.22-1.42,5-.9,6,2.06,1.54,2.18,2.57-1.28,3.22-1,4.64.78,2.44,4.12,3.6c0,0,1.29.52,1.55,3.22s.9,6.69,1.93,8.24,5.28,4.5,11.2,6.17,6.43,1.68,9.78,4.25,4.5,1,7.21,1.42a21.61,21.61,0,0,1,7.59,3.09c1.55,1,5.15,3.34,7.34.9s1.41-3.86,1.41-3.86a75.52,75.52,0,0,0-2.44-8.11c-.9-1.93-3.35-10-2.71-16.48a41.68,41.68,0,0,1,4-13.26c.52-1,.39-4,.13-4.89s-2.83-4.24,0-5.14a10.84,10.84,0,0,1,4.51-.65s3.47-6.18,4.5-6.18a13.85,13.85,0,0,0,4.77-1.28c.64-.52,7.72-5.92,19.95-11.72s13.64-8,14.15-8.75a68.68,68.68,0,0,1,9-7.85c2.32-1.42,3-3.35,4.38-3.86.79-.29,3.72-2.43,7.8-4.48,2.28-1,9.27-3.21,11.16-3.81"/><path class="g" d="M567,288.75s2.07,7.3,3.15,9,4.57,6.7,4.57,6.7.81,3,7.21,4.34c0,0,2.46.92,2.23,2.23s-.87,1.7-1.89,2.87a9.06,9.06,0,0,0-.93,5.32c.59,3,4.53,6.26,8.22,8.5,0,0,1.3,14.45,1.16,23.46s-1.07,33.34-1.07,33.34.87,11.37,1.08,12.83,95.84-1,95.84-1a2.51,2.51,0,0,1,1.33,3.21c-.77,2.31-2.23,3.22-3.77,5.15s-1.12,3.13-1.12,3.13H694.9s3.69-5.84,3.69-8.28-.3-5.88.08-6.39,3.83-2.45,5.36-4.13a10,10,0,0,0,2.56-3.83c.88-2,.86-2.73.34-3.37a4.52,4.52,0,0,0-2.53-1.64,8,8,0,0,1-3.11-1.06,11.46,11.46,0,0,1-2.53-4.11,11,11,0,0,1,0-5.42c.26-1.16-.65-1.84-1.65-3.62-.53-.95-2.25-5.48-3.15-6.25s-2.46-.81-3.7-1.2c-3-.94-3.56-1.71-6.13-3.77s-4.85-4.08-5.62-7.56,1.5-7.47,2.36-9.39,2-4.72,1.33-5.88-2.49-1.33-4.68-1.72-4.74-.46-6.13-.85c-1.17-.34-1.21-5.8-1.08-6.7s-6.43-3.17-12.65-11a18,18,0,0,1-2.92-3.95c-1.12-1.84-1.2-2.4-1.67-5.66-.16-1.05-1-9.53-1-9.79s-2.71-3.6-3.54-5.66Z"/><path class="h" d="M694.9,407.81c-.19.63-2.9,11.65-3.22,11.9s-3.59,2.48-3.59,2.48a22.68,22.68,0,0,0,.44,3.32c.21.92.38,4.5-.19,5.27-1.08,1.46-2,2.56-2,2.56s38.64-1.55,42.24-1.72,58.18-5.32,58.18-5.32l25.74-3.43,1-6.35s2.4-1.89,4.46-1.89c0,0,.69-4.63,1.2-5s10-5.14,11.67-6,8.24-4.16,8.41-5.09,1.55-5.9,2.23-6.07,3.61-3.6,4.12-3.17a9.79,9.79,0,0,0,3.26,1.63c.69,0,2.58-4.29,3.27-4.46a48.48,48.48,0,0,1,5.14,0s2.23-6,5.32-7.38v-6.7a4.37,4.37,0,0,0-2.23,0,16,16,0,0,0-3.26,2.41L729.84,386l.32,5.67-29.24-.09c-1.93,1.21-1.86,1.05-2.25,1.57s-.08,3.94-.08,6.39-3.69,8.28-3.69,8.28"/><path class="i" d="M743.68,198.65c.51-2.32.64-2.7,1-3.35s-.52-1.41-.52-4.24v-4.51c1-3.86,2.71-12.87,2.71-12.87l-1-.13s-.52-1.67-.13-2.32,2.44-1.28,2.44-1.28l.78-1.81a11.15,11.15,0,0,0-.78-2.18c-.38-.65-.38-1.55,1.55-2.71s4.5-2.57,4.5-2.57a17.65,17.65,0,0,1,.65-4c.51-1.42,2.7-1.16,2.7-1.16s.9.13.39,2.19a27.93,27.93,0,0,1-1.81,4.63V167a18.46,18.46,0,0,0,3.35-1.16c2.06-.9,1.42-2.06,1.55-3.22a49.08,49.08,0,0,0-.52-7.08c-.26-1.67,1.29-3.73,2.45-4.25a35.57,35.57,0,0,1,5.53-1,10.42,10.42,0,0,0-.26-1.28c-.12-.39-3.34-1.55-3.34-1.55a16.14,16.14,0,0,1-.9-3.6c.13-.65,7.2-4.38,7.2-4.38l4,2.45a31,31,0,0,1,4.38-.39c2.06,0,7.21,4.38,9.4,5.28s6.3,0,6.43.64a21.2,21.2,0,0,0,3.61,5c.77.52.38,2.19.38,2.19-.13.77-2.44.39-2.44.39-2.45,1.41,4,6.69,4,6.69s.51,10.81,0,11.84a5.53,5.53,0,0,1-2.58,2.57c-1.28.65-1,4.77-1.8,5.8s-2.19,1-3.22,1.54-1,6.31-1,6.31,1.29,2.57,3,3.47,1.55.9,3.22-.25,2.7-4,3.48-5.8,1.54-4,2.44-4.63,5.15-3.09,6.57-3.35,3.34,3.61,4.5,5,2.19,5.28,2.58,7.85,5,14.16,5,14.16l.51,10.82-2.19.9-.9-1a2.72,2.72,0,0,0-2.44.64c-1.29,1-1.93,6.69-1.93,6.69a9,9,0,0,1-2.19,2.45c-1.29.9-.26,5.53-.26,5.53s0,.65-2.7,4.25-1.33,5.68-1.33,5.68l-27.09,4.1-.16-2.18L753,247.59a92,92,0,0,1-10.36.78c1.42-1.16,3.76-3.26,4.28-5.06s2.57-8.36,3-9.91a67.64,67.64,0,0,0,2.31-10.81c.52-4.89-3-11.2-3.21-11.71s-2.58-4.77-4.12-7.08-1.68-2.83-1.16-5.15"/><path class="i" d="M710.34,100c1.2.08,2,1.72,2,1.72a14.79,14.79,0,0,1-3.69,1.71c-1.89.52-.78,1.29-2.32,2.92s-2.06,1.2-3.26,3-2.23,4-3.26,5.32-.77,3.18-.17,3.43,1.2-1,2.66-1.88,2.57-1.2,5.49-1,2.23.43,5,1.8,1.2.77,3,3,4,4.29,5.75,4.55,3.77.09,7.29.43a13.86,13.86,0,0,0,5.41-.26c1.89-.26,2.4-2,4-3.09a31.64,31.64,0,0,1,5.24-3.26c2.66-1.29,3-.34,7.29-.51s9-3.09,9.7-3.26,2-.69,2-.69-.26,6.95,2,7.72,5.24-.34,9.53-1,3.69-2.14,3.69-2.14l1.8.6s-.26,7-.17,7.38a4.32,4.32,0,0,0,1.2,1.71c.77.78,5,4.55,5,4.55s-2.84.26-4.55.26a29.36,29.36,0,0,0-7.81.94c-2.23.78-3.78.43-5.66.35s-5.58-.52-7.73-.78-4.37-.34-4.8.61-.43,2.48-4,2.57a67.84,67.84,0,0,0-9.35,1.29s-2.06,4.54-2.83,4.54-2.83-1.45-2.83-1.45-3.69,1.71-4.46,2.23-1.89-1-1.89-1c-1.72-1.38-2.06.51-2.06.51-.52,2.4-6.72,16.18-7.23,18a5.58,5.58,0,0,1-3.64-4.42l-1-6.18c-.06-.35-.28-2.71-.39-3.14s-1.8-1.37-3-2-4-2.74-4-2.74L700.48,140,684,135.73c-1.26-.32-8.3-1.86-9-1.95s-4.77-.39-4.77-.39l-4.18-5.86c1-.87,1-1.61,2.48-2.29,1.73-.79,4.47-2,5.84-2.45s.43-1.37,2.06-2.4,3.86-.26,5.49-.43,2.06-1.71,3.86-2.74,5.41-2.75,5.41-2.75a8.71,8.71,0,0,1,1.2-3.09,22.77,22.77,0,0,1,6.18-6.78c2.61-1.94,4.46-3.77,6.69-4.46Z"/><path class="g" d="M162.11,399,76.85,269.66l19.36-79.52,114.64,27.3s-17.08,88.43-25.24,130.81c-2.2,11.44-3.5,18.22-3.94,20.56,0,0-.36,5-3,5.07-2.16,0-1.79-.91-4.06-3s-2.71-2.83-4.77-2.83a4.44,4.44,0,0,0-4.33,4.2c0,2.4-1,14.76-1,16.48C164.51,388.72,164.51,397.81,162.11,399Z"/><path class="h" d="M162.11,399a37.57,37.57,0,0,0,0,4.64c.17,2.06,2.06,3.09,3.43,4.8s1.37,6.87,1.72,7.55,1.89,2.23,1,4.81-7.21,4.63-8.76,6.52-1.37,8.58-1.88,9.78-4.81,3.78-5.32,5-.69,8.07-.69,8.92,3.26.69,4.63,1.38-2.48,5.1-2.48,5.1l-5.41,2.71c-3.09,1.28,0,5.14,0,5.14l74.4,43.51,45,6.43,21.1-149.82L185.61,348.25s-1.88,9.57-3.94,20.56c0,0-.36,5-3,5.07-2.16,0-1.79-.91-4.06-3s-2.71-2.83-4.77-2.83a4.44,4.44,0,0,0-4.33,4.2c0,2.4-1,14.76-1,16.48,0,0,0,9.09-2.4,10.29"/><path class="f" d="M421.08,61.18l-8,80.32,137.4,5.41v-8.76s-3.09-17.16-3.26-18.87-.81-15.15-1.37-19.4c-.39-2.91-4-7.72-4.29-11.84a88.74,88.74,0,0,1,.51-14.24c.17-1.91-1.89-8.41-1.89-8.41Z"/><path class="i" d="M863.9,227l5.7,34.58,5.93,24.37,91-16.71,8.18-4.4c1.87-1,3.07-.07,3.6-1.2a18.91,18.91,0,0,1,3-4.81c1-1,5.06-5.4,5.06-5.4a17.88,17.88,0,0,0-4.2-3.69c-2.58-1.89-2.66-1.55-3.35-2.58s-.94-2.06-1.8-2.4a10.9,10.9,0,0,0-3.07-.22l-.19-3.81s2.57-2.41,2.57-3.95-1.29-2.4-1.29-4.29,1.22-2.74,2.32-5.24a25.47,25.47,0,0,0,1.8-5.66,5.18,5.18,0,0,0-.51-1.89s-3.78-.17-4.12-.68-2.4-7.21-3.09-8.93-3.26,0-4.29-.51-2.92-3.78-2.92-3.78l-85.12,18-.18-7.85S866.17,226.19,863.9,227Z"/><path class="i" d="M869.6,261.55a4.33,4.33,0,0,1-1.37,3c-.86,1-.63,2.1-.17,3.6.69,2.28.3,11.2.3,12.32s-.56,7.59-.56,7.59-5.15,9.23-8.74,10.05c-1.94.44-2.93-.22-3.61.38s-4.29,5.71-4.47,6c-.64,1-1.15,1.94-.6,3.22s2.41,4.68,1.12,5.11c0,0-1.76.28-3.31-2.15-.8-1.26-2.78-1.07-3.13,1.16s-.34,8.24-.68,9.18-1.38,1.46-1.63,2.23.1,3-.6,3.56c0,0-1.1,2-4.9,1.08-.76-.18.26,7.33.52,8s2.06,1.54,2.06,1.93,1.8,2.44,4.5,5.79a106.48,106.48,0,0,0,7.6,8s5.27,6,9.2,6.37a5.68,5.68,0,0,0,5.66-3.28c.2-.32,2.45,1.22,3.29,1.54s3.41,0,4.31-1.48,2.25-5.92,3.09-5.85,2.12,1,3.09.77,3.66-3,4.37-2.57a2.65,2.65,0,0,0,1.74.06s3.41-3,2.9-4.31a21.24,21.24,0,0,1-.9-3.22s-.07-1.22,1.28-3.93,3.8-7.78,4.25-9.07,2-5.86,2.06-7.34,1.09-5.79,1.93-5.14,2.45,3.15,3,3.34,3.86,1,4.44.07a27.8,27.8,0,0,0,1.74-6.38c.06-1.09.06-3,1.48-3.21s3-.45,3.15-.9.2-2.71.32-3,3.74-2.26,4.25-3.87,2.83-7.14,2.83-10.68c0,0-.38-2.12,1.23-1.09s10,5.66,10.55,4.82,1.16-5.47.52-6.37-6.7-6.11-9.4-6.11-3.48,1.41-4.7,2.64-2.12,2.83-3.8,2.51a17.3,17.3,0,0,0-3.73-.52c-.26.13-2.32,3.8-3.09,4.19s-2.76.64-3.47,1.15-5.54,6.31-6.18,6.38-2.91-14.67-2.91-14.67l-18.86,3.47Z"/><path class="j" d="M324.8,50.29c-27.46-3.78-114.29-20.6-114.29-20.6L205.7,54.23c0,1,2.06,5.49,2.75,6.87a9.06,9.06,0,0,1,.68,5.83,7.38,7.38,0,0,0,1.72,6.87c1.89,1.88,3.77,2.91,4.29,3.94s4.12,10.64,5.32,12.88,3.6,3.6,6,4.63,2.74,2.57,1.88,4.29-8.58,19.56-8.58,20.77.35,5.49,3.26,5.83,6.18-1.89,7.9-2.92,1.37-1.2,1.37,1,.34,8.07.86,9.61,1.71,9.44,3.6,10.82,4.64,3.08,5.32,5.14a18,18,0,0,1,.86,6.87c-.17,2.4.34,2.92,1,2.74s2.4-1.37,4.46-1.37,4.29.86,5.84.86,4.8-.69,7-.17,4.64,1.71,5.84,1.71,3.26.69,3.26-1.37.69-3.43,2.57-3.43,1.72,2.92,2.58,3.6l2.57,2.06L280,148.45l130.75,16.4L421.08,61.18S352.26,54.06,324.8,50.29Z"/><path class="k" d="M979.07,220a12.47,12.47,0,0,1,.11,1.61,25.47,25.47,0,0,1-1.8,5.66c-1.1,2.5-2.32,3.35-2.32,5.24s1.29,2.74,1.29,4.29-2.57,3.95-2.57,3.95l.19,3.81a10.9,10.9,0,0,1,3.07.22c.86.34,1.11,1.37,1.8,2.4s.77.69,3.35,2.58a17.88,17.88,0,0,1,4.2,3.69s-4,4.37-5.06,5.4a18.91,18.91,0,0,0-3,4.81c-.53,1.13-1.47-.55-3.26.6-1.2.77-2.14,5.62-2.14,5.62,1.4,1.17,2.32,3.6,4.76,4.76s4.51,3.6,7.85,4.51l3.35.9s0,1.8.13,3.73a9.69,9.69,0,0,0,.51,2.83s3-1.29,3-3.35-.77-2.18.65-4.24,3.86-6.44,5-8.5,2.7-8.75,3-12.36.38-9.26-.65-12.48-1.8-3.22-1.8-3.22l-5.15.26a36.2,36.2,0,0,1,3.35-3,12.13,12.13,0,0,0,.86-4c-.17-1.29.51-5.24.51-5.84s-.08-2.74-1.11-3.09-9-2.74-9.36-3S979.07,220,979.07,220Z"/><path class="k" d="M540.18,65.39l36.3,1.28.09-.85c.08-1.38.25-9.36.85-9.44s5.32,2,5.32,2c-.17,10,3.61,14.25,4.55,14.93s2.83.6,4.72.77,1.2,1.12,2.32,1.63,5.4.61,6.18.78.68,1.88.68,1.88h6.35c2.06-4.8,8.93-2.14,9.19-2.14s9.95,5.92,12,6.26,2.14-1,3-1,1,.18,1.37,1,.95,2.23,2.15,2.58a22.8,22.8,0,0,0,3.35.51l.43,2.92c.77,1,4.2.86,6.86.86s5.49-5.15,5.49-5.15h3.35l1,2.83,2.23-.08h11.67s1.63,2.14,2.23,2.74.52-.86,1.12-.94,4.72-.43,4.72-.43a3.65,3.65,0,0,1-.18,1.8c-.34,1-1.54,1.37-2.83,2.06a33.1,33.1,0,0,1-9.52,4.46c-6,1.8-11.24,5.92-12.7,6.95s-4.38,7.12-5.41,8.33a17.26,17.26,0,0,1-4,3.17,45.14,45.14,0,0,0-5.49,5.32c-1.11,1.29-3.09,3.09-3.09,3.35,0,0-4,2.31-4,3.86s-.26,13.9-.26,13.9a42.76,42.76,0,0,0-6.35,5.06c-1.8,2.06-3.82,4.47-4.07,6s3.86,3.48,4.12,5.53.77,3-.52,5-1.24,6.18-1.24,8-.43,6.7,2.4,9.27,4.89-.26,5.92,1,1.42,3.22,2.7,4,4.06.54,4.38,1.42c1.67,4.63,8.37,8.75,9.65,9.52a21.33,21.33,0,0,1,4.64,3.48c2.14,2.57.85,9.74.85,9.74l-98.67,1.76-.52-47.67s-.09-1-1.86-2.37-3.7-3-4-4a3.35,3.35,0,0,1,1.09-4.28l1.7-.85v-14s-3.69-17.54-3.8-27.54c0,0-.52-10-.95-11.33s-3.29-7.88-3.67-8.82c-.55-1.35-.93-5.34-.55-8.95a56.06,56.06,0,0,0,.43-10A44.89,44.89,0,0,0,540.18,65.39Z"/><path class="g" d="M734.5,324.64a8.87,8.87,0,0,1,1.13,2.53,12.2,12.2,0,0,1,0,4.63c-.38,1-4.31,9.34-5.79,11.2,0,0-2,2.33-2.32,4.13l-.19,8.16c10-5.92,16.09-3.34,16.48-3.21a23.86,23.86,0,0,1,2.57,2.57,11.6,11.6,0,0,0,1.29-2.32,7.1,7.1,0,0,1,4.25-3.09c1,0,2.57,1.81,2.57,1.81s1.55,1.41,2.45.9.13-4.12.13-4.12,5-2.83,5.79-2.83,1.67,1.67,1.67,1.67a32.48,32.48,0,0,0,4.76-.13c1.42-.26.65-3.86.65-4.38s1.93-2.83,3.34-4.24,5.54-5.15,5.54-5.15l.51-5.28s-.51-.64,3-.64,7.34-3.73,8.24-4.51-1.41-4-1.41-4l.38-3.47s-6.9-66.18-7.08-70.79c0,0-33.46,4.24-38,4.24l-1.83,0a22.73,22.73,0,0,0-3.79,2.28c-.67.73-.76,2.28-3.13,2.45a8.83,8.83,0,0,1-2.08-.14l-4.28-1.42.15,2.08s4.21,57.94,3.83,61.14a29,29,0,0,0-.1,6.85,15.68,15.68,0,0,0,.89,2.23c.12.23.25.5.39.8"/><path class="i" d="M634,124.06s-2.71,1.42-3.48,3.54c-.53,1.45-.26,13.9-.26,13.9a42.76,42.76,0,0,0-6.35,5.06c-1.8,2.06-3.82,4.47-4.07,6s3.86,3.48,4.12,5.53.77,3-.52,5-1.24,6.18-1.24,8-.43,6.7,2.4,9.27,4.89-.26,5.92,1,1.42,3.22,2.7,4,4.06.54,4.38,1.42c1.67,4.63,8.37,8.75,9.65,9.52a21.33,21.33,0,0,1,4.64,3.48c2.14,2.57.85,9.74.85,9.74a14,14,0,0,0,.43,2.49c.22.38,3.66,3.87,3.64,4.5,0,.45-1.58,3.33-1.75,4.19s-.51,4.68.12,5.78,2.6,4.17,4.62,5c1.75.68,4.78.95,5.28,1.35A2.08,2.08,0,0,1,666,234c0,.31,55.72-3.93,55.72-3.93h0s.77-3.35-.13-4.9-2.83-9.13-2.83-10.94-1.55-4.89-.64-5.92,3.08-6.05,3.08-8.75-2.31-9.27-.51-10.81,1.8-4.38,1.8-5.15a42.35,42.35,0,0,1,.77-7.21,77.93,77.93,0,0,1,4.64-9.91s3.69-8.41,1.8-9.91c0,0-3.18,4.5-4.46,5.88S723,166.13,722,167.5s-2.83,3-4,4.55-2.92,5.58-4,5.4-2.23-3.26,2.06-9.61c0,0,3.16-5,4.18-7.16a5.6,5.6,0,0,1-3.54-4.06c-.58-3.08-1.22-7.33-1.35-8.3s.38-1.35-1.1-2.25a43,43,0,0,1-4.69-3c-1.55-1.22-.39-.64-4.19-1.8s-15.12-3.86-18.27-4.77-10.23-2.57-12-2.76-4.58-.26-4.77-.39-4.18-5.86-4.18-5.86a4.14,4.14,0,0,1-1.81,1c-1.28.39-1.41-.64-1.61-.77a12.89,12.89,0,0,0-3.54-1.35c-1-.07-2.18.64-3,.64s-1.54-.64-1.54-1a19.06,19.06,0,0,1,2.45-4.12c.57-.58,1.6-1.67,1.15-2.51s-1.41-2.12-3-1.61-6.18,3.54-7.47,4c0,0-4.69,3.22-9.07,3.41Z"/><path class="h" d="M267.83,515.28l21.1-149.82L185.61,348.25s-1.88,9.57-3.94,20.56"/><path class="g" d="M891.7,528.22c3.09,16,14.29,30.57,17,36.36s8.24,9.91,10.94,12.36,3,4.76,3,5.53-1.54,2.71-1.67,3.61,2.31,6.43,2.44,7.46,3.22,3.86,3.22,3.86,6.57,11.2,8.37,14,5.53,8.5,6.18,10.56a58.47,58.47,0,0,1,1.41,7.59c.13,1.16.52,12.36.39,13.77s1.29,5.8,0,7.34-1.55,1.93-2.7,3.35,0,8.75,0,8.75c0,3.48-4.64,5.28-5.93,5.79s-4.5.26-4.5.26c-2.83,3-5.66,2.7-5.66,2.7-3.48-.38-3.22-4.37-3.09-6.69s-2.71-6.18-5.28-9.53-7.21-2.05-8.11-2.05a3.66,3.66,0,0,0-1.8.64c-2.06-1.55-3.48-6.69-3.48-7.72,0-3.31-4.89-6.7-4.89-6.7s-.77-.51-1.93,1-2.83.26-2.83.26c-6.05-13.13-7.72-13-9.52-16.09s-7.86-9.4-7.86-9.4l5.54-7.85s2.44-2.18-.65-3.86a4,4,0,0,0-5,.52s1.94.64,2.32,2.18-1.93,5.15-1.93,5.15a23,23,0,0,1-3.47-16c.64-4.12.9-12.74,0-15.19a49,49,0,0,0-4.38-7.59c-.39-.51-5.28-1.54-7.59-2.7s-3.09-2.71-3.74-3.22-2.57-1.29-3.6-2.83-.26-1.93-1.67-3-3.09-1.29-3.74-2.19-2.7-3.35-3.47-3.6-3.09-3.22-8.11-3.74-6.18,1.55-7.08,2.06.39,3,0,3.74-2.83-.52-3.6.38-6.83,6-8.89,6.31-3.34.26-4.76.38a8.86,8.86,0,0,0-3.09,1.16,18.1,18.1,0,0,0-.64-3.47c-.52-1.68-4.12-3.22-6.18-4.51a113,113,0,0,0-12.48-5.79c-4.77-1.93-9.4-1.93-15.45-1.29S760.11,554,757,554.8c0,0,.15-7.88,0-8.83s-1-1.67-3-3.1-3.77-2.36-2.57-5.28c0,0-.05-1.21,3.45-1.55l55.58-5.31,4.64,6.82,61.13-2.83s-.72,3.18,0,3.8,3.8.51,3.8.51a19.1,19.1,0,0,0,.68-4.52c-.18-1.13-2.09-6-2.09-6s.37-1.85,3-1.56Z"/><path class="i" d="M782.58,246.27l27.09-4.1s3.64,2.9,5.7,3.2c0,0,6.12-.53,6.57-.38a28.15,28.15,0,0,1,2.91,2.27,7.44,7.44,0,0,0,2.75,1.59c1.42.34,4.15-2,4.15-2a31.16,31.16,0,0,1,8.68-2.31,8.28,8.28,0,0,0,4.67-2.38s5-5.73,7.23-7.3,6.7-5.09,7.95-5.84S863.9,227,863.9,227s5.71,33.25,5.7,34.58a4.33,4.33,0,0,1-1.37,3c-.86,1-.63,2.1-.17,3.6.69,2.28.3,11.2.3,12.32s-.56,7.59-.56,7.59-5.15,9.23-8.74,10.05c-1.94.44-2.93-.22-3.61.38s-4.29,5.71-4.47,6c-.64,1-1.15,1.94-.6,3.22s2.41,4.68,1.12,5.11-1.92-1-3.31-2.15c-1.16-.94-2.78-1.07-3.13,1.16s-.34,8.24-.68,9.18-.69,2.39-1,3.17-.17,2.66-.64,3.44c-1.63,2.7-5.54.26-5.54.26-3.39-1.25-4.24-2.53-5.27-4.25-.89-1.48-.94-2.91-1.63-3.43-1-.77-2,.08-3,1s-2.62,3.17-4.17,2.79a27.16,27.16,0,0,0-4.37-1.16c-1.55-.13-3.22.77-4.25.9s-4.38-1.55-5-1.93-5.92-.26-5.92-.26a43.45,43.45,0,0,0-1.67-4.63,5.72,5.72,0,0,0-3.35-2.06c-1.67-.26-9.14,0-9.14,0l-.59-5.71Z"/></svg>
